<svg width="145" height="145" viewBox="0 0 145 145" fill="none" xmlns="http://www.w3.org/2000/svg">
<g clip-path="url(#clip0_2_3)">
<path d="M130.5 87H114.695C113.462 92.075 111.505 96.7875 108.823 100.993L119.987 112.158L104.762 127.382L93.5975 116.218C89.3925 118.828 84.68 120.785 79.75 121.945V137.75H58V121.945C53.07 120.785 48.3575 118.828 44.1525 116.218L32.9875 127.382L17.6175 112.012L28.7825 100.847C26.1725 96.6425 24.215 91.93 23.055 87H7.25V65.4675H22.9825C24.1425 60.3925 26.1725 55.68 28.7825 51.4025L17.6175 40.2375L32.8425 25.0125L44.0075 36.1775C48.2125 33.495 52.9975 31.5375 58 30.305V14.5H79.75V30.305C84.68 31.465 89.3925 33.4225 93.5975 36.0325L104.762 24.8675L120.132 40.2375L108.967 51.4025C111.577 55.68 113.607 60.3925 114.767 65.4675H130.5V87ZM68.875 97.875C80.91 97.875 90.625 88.16 90.625 76.125C90.625 64.09 80.91 54.375 68.875 54.375C56.84 54.375 47.125 64.09 47.125 76.125C47.125 88.16 56.84 97.875 68.875 97.875Z" fill="url(#paint0_linear_2_3)"/>
</g>
<defs>
<linearGradient id="paint0_linear_2_3" x1="68.875" y1="14.5" x2="68.875" y2="137.75" gradientUnits="userSpaceOnUse">
<stop stop-color="#F3EFFF"/>
<stop offset="1" stop-color="white"/>
</linearGradient>
<clipPath id="clip0_2_3">
<rect width="145" height="145" fill="white"/>
</clipPath>
</defs>
</svg>
