<svg width="748" height="149" viewBox="0 0 748 149" fill="none" xmlns="http://www.w3.org/2000/svg">
<g clip-path="url(#clip0_2_35)">
<path d="M130.5 87H114.695C113.462 92.075 111.505 96.7875 108.823 100.993L119.987 112.158L104.762 127.382L93.5975 116.218C89.3925 118.828 84.68 120.785 79.75 121.945V137.75H58V121.945C53.07 120.785 48.3575 118.828 44.1525 116.218L32.9875 127.382L17.6175 112.012L28.7825 100.847C26.1725 96.6425 24.215 91.93 23.055 87H7.25V65.4675H22.9825C24.1425 60.3925 26.1725 55.68 28.7825 51.4025L17.6175 40.2375L32.8425 25.0125L44.0075 36.1775C48.2125 33.495 52.9975 31.5375 58 30.305V14.5H79.75V30.305C84.68 31.465 89.3925 33.4225 93.5975 36.0325L104.762 24.8675L120.132 40.2375L108.967 51.4025C111.577 55.68 113.607 60.3925 114.767 65.4675H130.5V87ZM68.875 97.875C80.91 97.875 90.625 88.16 90.625 76.125C90.625 64.09 80.91 54.375 68.875 54.375C56.84 54.375 47.125 64.09 47.125 76.125C47.125 88.16 56.84 97.875 68.875 97.875Z" fill="#E4DDCD"/>
</g>
<path d="M193.496 121V31.4H210.008L237.656 72.36L265.304 31.4H281.816V121H266.456V55.592L237.656 98.216L208.728 55.72V121H193.496ZM329.501 122.536C323.016 122.536 317.298 121.128 312.349 118.312C307.4 115.411 303.474 111.443 300.573 106.408C297.757 101.373 296.349 95.5707 296.349 89C296.349 82.4293 297.757 76.6267 300.573 71.592C303.389 66.5573 307.272 62.632 312.221 59.816C317.17 56.9147 322.845 55.464 329.245 55.464C335.73 55.464 341.448 56.9147 346.397 59.816C351.346 62.632 355.186 66.5573 357.917 71.592C360.733 76.6267 362.141 82.4293 362.141 89C362.141 95.5707 360.733 101.373 357.917 106.408C355.186 111.443 351.346 115.411 346.397 118.312C341.533 121.128 335.901 122.536 329.501 122.536ZM329.501 108.968C333 108.968 336.029 108.115 338.589 106.408C341.234 104.701 343.325 102.355 344.861 99.368C346.397 96.3813 347.165 92.9253 347.165 89C347.165 85.0747 346.397 81.6187 344.861 78.632C343.325 75.6453 341.192 73.2987 338.461 71.592C335.816 69.8853 332.744 69.032 329.245 69.032C325.746 69.032 322.674 69.8853 320.029 71.592C317.384 73.2987 315.293 75.6453 313.757 78.632C312.221 81.6187 311.453 85.0747 311.453 89C311.453 92.9253 312.221 96.3813 313.757 99.368C315.293 102.355 317.426 104.701 320.157 106.408C322.888 108.115 326.002 108.968 329.501 108.968ZM420.388 121L419.748 109.096V31.4H434.468V121H420.388ZM399.652 122.536C393.849 122.536 388.772 121.171 384.42 118.44C380.153 115.624 376.783 111.699 374.308 106.664C371.919 101.629 370.724 95.7413 370.724 89C370.724 82.1733 371.919 76.2853 374.308 71.336C376.783 66.3013 380.153 62.4187 384.42 59.688C388.772 56.872 393.849 55.464 399.652 55.464C405.113 55.464 409.721 56.872 413.476 59.688C417.316 62.4187 420.26 66.3013 422.308 71.336C424.356 76.2853 425.38 82.1733 425.38 89C425.38 95.7413 424.356 101.629 422.308 106.664C420.26 111.699 417.316 115.624 413.476 118.44C409.721 121.171 405.113 122.536 399.652 122.536ZM403.364 108.968C406.521 108.968 409.337 108.115 411.812 106.408C414.287 104.701 416.207 102.355 417.572 99.368C419.023 96.3813 419.748 92.9253 419.748 89C419.748 85.0747 419.023 81.6187 417.572 78.632C416.207 75.6453 414.287 73.2987 411.812 71.592C409.337 69.8853 406.479 69.032 403.236 69.032C399.908 69.032 396.921 69.8853 394.276 71.592C391.716 73.2987 389.711 75.6453 388.26 78.632C386.809 81.6187 386.041 85.0747 385.956 89C386.041 92.9253 386.809 96.3813 388.26 99.368C389.796 102.355 391.844 104.701 394.404 106.408C397.049 108.115 400.036 108.968 403.364 108.968ZM478.73 122.536C472.415 122.536 466.826 121.128 461.962 118.312C457.183 115.411 453.386 111.443 450.57 106.408C447.839 101.373 446.474 95.5707 446.474 89C446.474 82.4293 447.882 76.6267 450.698 71.592C453.514 66.5573 457.354 62.632 462.218 59.816C467.167 56.9147 472.842 55.464 479.242 55.464C484.959 55.464 490.122 56.9573 494.73 59.944C499.338 62.8453 503.007 67.0693 505.738 72.616C508.469 78.1627 509.834 84.8187 509.834 92.584H459.914L461.706 90.92C461.706 94.6747 462.517 97.96 464.138 100.776C465.845 103.507 468.063 105.64 470.794 107.176C473.61 108.627 476.725 109.352 480.138 109.352C483.978 109.352 487.135 108.499 489.61 106.792C492.085 105.085 494.005 102.867 495.37 100.136L508.554 105.512C506.762 109.011 504.458 112.04 501.642 114.6C498.826 117.16 495.498 119.123 491.658 120.488C487.903 121.853 483.594 122.536 478.73 122.536ZM462.602 83.112L460.682 81.32H495.754L493.962 83.112C493.962 79.6987 493.194 76.9253 491.658 74.792C490.207 72.5733 488.33 70.9093 486.026 69.8C483.722 68.6907 481.333 68.136 478.858 68.136C476.383 68.136 473.866 68.6907 471.306 69.8C468.831 70.9093 466.741 72.5733 465.034 74.792C463.413 76.9253 462.602 79.6987 462.602 83.112ZM530.414 87.08C530.414 80.168 531.737 74.4933 534.382 70.056C537.113 65.5333 540.569 62.2053 544.75 60.072C548.931 57.8533 553.326 56.744 557.934 56.744V70.952C554.094 70.952 550.425 71.464 546.926 72.488C543.513 73.512 540.697 75.2187 538.478 77.608C536.345 79.912 535.278 82.984 535.278 86.824L530.414 87.08ZM520.558 121V57H535.278V121H520.558ZM578.057 148.136C575.924 148.136 573.577 147.709 571.017 146.856C568.457 146.088 566.068 145.149 563.849 144.04L569.353 131.88C570.974 132.733 572.425 133.373 573.705 133.8C575.07 134.227 576.18 134.44 577.033 134.44C578.996 134.44 580.702 133.928 582.153 132.904C583.604 131.88 584.756 130.344 585.609 128.296L593.033 110.632L614.409 57H630.665L600.969 127.528C599.262 131.709 597.47 135.336 595.593 138.408C593.716 141.48 591.412 143.869 588.681 145.576C585.95 147.283 582.409 148.136 578.057 148.136ZM589.065 121L560.393 57H576.393L598.537 110.632L603.273 121H589.065ZM676.095 121L675.583 108.84V88.232C675.583 83.9653 675.114 80.3813 674.175 77.48C673.322 74.5787 671.914 72.36 669.951 70.824C667.988 69.2027 665.386 68.392 662.143 68.392C659.156 68.392 656.511 69.032 654.207 70.312C651.903 71.592 649.94 73.5547 648.319 76.2L635.391 71.592C636.671 68.776 638.463 66.1307 640.767 63.656C643.071 61.1813 645.972 59.2187 649.471 57.768C652.97 56.232 657.194 55.464 662.143 55.464C668.458 55.464 673.706 56.7013 677.887 59.176C682.068 61.5653 685.183 65.0213 687.231 69.544C689.279 74.0667 690.26 79.4853 690.175 85.8L689.791 121H676.095ZM657.791 122.536C650.111 122.536 644.138 120.829 639.871 117.416C635.69 114.003 633.599 109.181 633.599 102.952C633.599 96.2107 635.86 91.1333 640.383 87.72C644.906 84.2213 651.22 82.472 659.327 82.472H676.223V93.736H664.063C658.346 93.736 654.335 94.504 652.031 96.04C649.812 97.576 648.703 99.752 648.703 102.568C648.703 104.957 649.684 106.835 651.647 108.2C653.61 109.48 656.34 110.12 659.839 110.12C662.911 110.12 665.642 109.437 668.031 108.072C670.42 106.621 672.255 104.744 673.535 102.44C674.9 100.051 675.583 97.448 675.583 94.632H679.807C679.807 103.336 678.058 110.163 674.559 115.112C671.06 120.061 665.471 122.536 657.791 122.536ZM730.286 122.536C723.374 122.536 718.126 120.829 714.542 117.416C711.043 114.003 709.294 109.139 709.294 102.824V37.032H724.014V100.008C724.014 102.909 724.697 105.128 726.062 106.664C727.427 108.115 729.433 108.84 732.078 108.84C732.931 108.84 733.87 108.669 734.894 108.328C735.918 107.987 737.07 107.389 738.35 106.536L743.726 117.8C741.507 119.251 739.246 120.403 736.942 121.256C734.723 122.109 732.505 122.536 730.286 122.536ZM698.67 69.672V57H741.038V69.672H698.67Z" fill="white"/>
<defs>
<clipPath id="clip0_2_35">
<rect width="145" height="145" fill="white"/>
</clipPath>
</defs>
</svg>
