<svg width="710" height="150" viewBox="0 0 710 150" fill="none" xmlns="http://www.w3.org/2000/svg">
<g clip-path="url(#clip0_2_35)">
<path d="M130.5 87H114.695C113.462 92.075 111.505 96.7875 108.823 100.993L119.987 112.158L104.762 127.382L93.5975 116.218C89.3925 118.828 84.68 120.785 79.75 121.945V137.75H58V121.945C53.07 120.785 48.3575 118.828 44.1525 116.218L32.9875 127.382L17.6175 112.012L28.7825 100.847C26.1725 96.6425 24.215 91.93 23.055 87H7.25V65.4675H22.9825C24.1425 60.3925 26.1725 55.68 28.7825 51.4025L17.6175 40.2375L32.8425 25.0125L44.0075 36.1775C48.2125 33.495 52.9975 31.5375 58 30.305V14.5H79.75V30.305C84.68 31.465 89.3925 33.4225 93.5975 36.0325L104.762 24.8675L120.132 40.2375L108.967 51.4025C111.577 55.68 113.607 60.3925 114.767 65.4675H130.5V87ZM68.875 97.875C80.91 97.875 90.625 88.16 90.625 76.125C90.625 64.09 80.91 54.375 68.875 54.375C56.84 54.375 47.125 64.09 47.125 76.125C47.125 88.16 56.84 97.875 68.875 97.875Z" fill="url(#paint0_linear_2_35)"/>
</g>
<path d="M155.496 122V32.4H172.008L199.656 73.36L227.304 32.4H243.816V122H228.456V56.592L199.656 99.216L170.728 56.72V122H155.496ZM291.501 123.536C285.016 123.536 279.298 122.128 274.349 119.312C269.4 116.411 265.474 112.443 262.573 107.408C259.757 102.373 258.349 96.5707 258.349 90C258.349 83.4293 259.757 77.6267 262.573 72.592C265.389 67.5573 269.272 63.632 274.221 60.816C279.17 57.9147 284.845 56.464 291.245 56.464C297.73 56.464 303.448 57.9147 308.397 60.816C313.346 63.632 317.186 67.5573 319.917 72.592C322.733 77.6267 324.141 83.4293 324.141 90C324.141 96.5707 322.733 102.373 319.917 107.408C317.186 112.443 313.346 116.411 308.397 119.312C303.533 122.128 297.901 123.536 291.501 123.536ZM291.501 109.968C295 109.968 298.029 109.115 300.589 107.408C303.234 105.701 305.325 103.355 306.861 100.368C308.397 97.3813 309.165 93.9253 309.165 90C309.165 86.0747 308.397 82.6187 306.861 79.632C305.325 76.6453 303.192 74.2987 300.461 72.592C297.816 70.8853 294.744 70.032 291.245 70.032C287.746 70.032 284.674 70.8853 282.029 72.592C279.384 74.2987 277.293 76.6453 275.757 79.632C274.221 82.6187 273.453 86.0747 273.453 90C273.453 93.9253 274.221 97.3813 275.757 100.368C277.293 103.355 279.426 105.701 282.157 107.408C284.888 109.115 288.002 109.968 291.501 109.968ZM382.388 122L381.748 110.096V32.4H396.468V122H382.388ZM361.652 123.536C355.849 123.536 350.772 122.171 346.42 119.44C342.153 116.624 338.783 112.699 336.308 107.664C333.919 102.629 332.724 96.7413 332.724 90C332.724 83.1733 333.919 77.2853 336.308 72.336C338.783 67.3013 342.153 63.4187 346.42 60.688C350.772 57.872 355.849 56.464 361.652 56.464C367.113 56.464 371.721 57.872 375.476 60.688C379.316 63.4187 382.26 67.3013 384.308 72.336C386.356 77.2853 387.38 83.1733 387.38 90C387.38 96.7413 386.356 102.629 384.308 107.664C382.26 112.699 379.316 116.624 375.476 119.44C371.721 122.171 367.113 123.536 361.652 123.536ZM365.364 109.968C368.521 109.968 371.337 109.115 373.812 107.408C376.287 105.701 378.207 103.355 379.572 100.368C381.023 97.3813 381.748 93.9253 381.748 90C381.748 86.0747 381.023 82.6187 379.572 79.632C378.207 76.6453 376.287 74.2987 373.812 72.592C371.337 70.8853 368.479 70.032 365.236 70.032C361.908 70.032 358.921 70.8853 356.276 72.592C353.716 74.2987 351.711 76.6453 350.26 79.632C348.809 82.6187 348.041 86.0747 347.956 90C348.041 93.9253 348.809 97.3813 350.26 100.368C351.796 103.355 353.844 105.701 356.404 107.408C359.049 109.115 362.036 109.968 365.364 109.968ZM440.73 123.536C434.415 123.536 428.826 122.128 423.962 119.312C419.183 116.411 415.386 112.443 412.57 107.408C409.839 102.373 408.474 96.5707 408.474 90C408.474 83.4293 409.882 77.6267 412.698 72.592C415.514 67.5573 419.354 63.632 424.218 60.816C429.167 57.9147 434.842 56.464 441.242 56.464C446.959 56.464 452.122 57.9573 456.73 60.944C461.338 63.8453 465.007 68.0693 467.738 73.616C470.469 79.1627 471.834 85.8187 471.834 93.584H421.914L423.706 91.92C423.706 95.6747 424.517 98.96 426.138 101.776C427.845 104.507 430.063 106.64 432.794 108.176C435.61 109.627 438.725 110.352 442.138 110.352C445.978 110.352 449.135 109.499 451.61 107.792C454.085 106.085 456.005 103.867 457.37 101.136L470.554 106.512C468.762 110.011 466.458 113.04 463.642 115.6C460.826 118.16 457.498 120.123 453.658 121.488C449.903 122.853 445.594 123.536 440.73 123.536ZM424.602 84.112L422.682 82.32H457.754L455.962 84.112C455.962 80.6987 455.194 77.9253 453.658 75.792C452.207 73.5733 450.33 71.9093 448.026 70.8C445.722 69.6907 443.333 69.136 440.858 69.136C438.383 69.136 435.866 69.6907 433.306 70.8C430.831 71.9093 428.741 73.5733 427.034 75.792C425.413 77.9253 424.602 80.6987 424.602 84.112ZM492.414 88.08C492.414 81.168 493.737 75.4933 496.382 71.056C499.113 66.5333 502.569 63.2053 506.75 61.072C510.931 58.8533 515.326 57.744 519.934 57.744V71.952C516.094 71.952 512.425 72.464 508.926 73.488C505.513 74.512 502.697 76.2187 500.478 78.608C498.345 80.912 497.278 83.984 497.278 87.824L492.414 88.08ZM482.558 122V58H497.278V122H482.558ZM540.057 149.136C537.924 149.136 535.577 148.709 533.017 147.856C530.457 147.088 528.068 146.149 525.849 145.04L531.353 132.88C532.974 133.733 534.425 134.373 535.705 134.8C537.07 135.227 538.18 135.44 539.033 135.44C540.996 135.44 542.702 134.928 544.153 133.904C545.604 132.88 546.756 131.344 547.609 129.296L555.033 111.632L576.409 58H592.665L562.969 128.528C561.262 132.709 559.47 136.336 557.593 139.408C555.716 142.48 553.412 144.869 550.681 146.576C547.95 148.283 544.409 149.136 540.057 149.136ZM551.065 122L522.393 58H538.393L560.537 111.632L565.273 122H551.065ZM638.095 122L637.583 109.84V89.232C637.583 84.9653 637.114 81.3813 636.175 78.48C635.322 75.5787 633.914 73.36 631.951 71.824C629.988 70.2027 627.386 69.392 624.143 69.392C621.156 69.392 618.511 70.032 616.207 71.312C613.903 72.592 611.94 74.5547 610.319 77.2L597.391 72.592C598.671 69.776 600.463 67.1307 602.767 64.656C605.071 62.1813 607.972 60.2187 611.471 58.768C614.97 57.232 619.194 56.464 624.143 56.464C630.458 56.464 635.706 57.7013 639.887 60.176C644.068 62.5653 647.183 66.0213 649.231 70.544C651.279 75.0667 652.26 80.4853 652.175 86.8L651.791 122H638.095ZM619.791 123.536C612.111 123.536 606.138 121.829 601.871 118.416C597.69 115.003 595.599 110.181 595.599 103.952C595.599 97.2107 597.86 92.1333 602.383 88.72C606.906 85.2213 613.22 83.472 621.327 83.472H638.223V94.736H626.063C620.346 94.736 616.335 95.504 614.031 97.04C611.812 98.576 610.703 100.752 610.703 103.568C610.703 105.957 611.684 107.835 613.647 109.2C615.61 110.48 618.34 111.12 621.839 111.12C624.911 111.12 627.642 110.437 630.031 109.072C632.42 107.621 634.255 105.744 635.535 103.44C636.9 101.051 637.583 98.448 637.583 95.632H641.807C641.807 104.336 640.058 111.163 636.559 116.112C633.06 121.061 627.471 123.536 619.791 123.536ZM692.286 123.536C685.374 123.536 680.126 121.829 676.542 118.416C673.043 115.003 671.294 110.139 671.294 103.824V38.032H686.014V101.008C686.014 103.909 686.697 106.128 688.062 107.664C689.427 109.115 691.433 109.84 694.078 109.84C694.931 109.84 695.87 109.669 696.894 109.328C697.918 108.987 699.07 108.389 700.35 107.536L705.726 118.8C703.507 120.251 701.246 121.403 698.942 122.256C696.723 123.109 694.505 123.536 692.286 123.536ZM660.67 70.672V58H703.038V70.672H660.67Z" fill="white"/>
<defs>
<linearGradient id="paint0_linear_2_35" x1="68.875" y1="14.5" x2="68.875" y2="137.75" gradientUnits="userSpaceOnUse">
<stop stop-color="#F3EFFF"/>
<stop offset="1" stop-color="white"/>
</linearGradient>
<clipPath id="clip0_2_35">
<rect width="145" height="145" fill="white"/>
</clipPath>
</defs>
</svg>
